Coordinates
version=1
nRows=22
nColumns=24
inDegrees=yes

Units are S.I. units (second, meters, Newtons, ...)
Angles are in degrees.

endheader
time	pelvis_tilt	pelvis_list	pelvis_rotation	pelvis_tx	pelvis_ty	pelvis_tz	hip_flexion_r	hip_adduction_r	hip_rotation_r	knee_angle_r	ankle_angle_r	subtalar_angle_r	mtp_angle_r	hip_flexion_l	hip_adduction_l	hip_rotation_l	knee_angle_l	ankle_angle_l	subtalar_angle_l	mtp_angle_l	lumbar_extension	lumbar_bending	lumbar_rotation
      3.46000000	     91.73800242	     32.15034929	    -91.70383063	      1.02546720	      0.28374130	      1.07600597	     11.56447229	     -8.52901011	      5.90763692	    -61.06126001	    -10.19238337	      0.00000000	      0.00000000	      9.11868130	     -7.63083864	     -5.91125096	    -70.82579555	    -10.85305009	      0.00000000	      0.00000000	      0.00000000	      0.00000000	      0.00000000
      3.47000000	     91.71560167	     32.10318043	    -91.71895581	      1.02537623	      0.28374493	      1.07602080	     11.49994752	     -8.60897097	      6.07527371	    -61.12046802	    -10.48169129	      0.00000000	      0.00000000	      9.05501721	     -7.63451843	     -5.94227771	    -70.81940119	    -10.85779132	      0.00000000	      0.00000000	      0.00000000	      0.00000000	      0.00000000
      3.48000000	     91.69707259	     32.08085783	    -91.71885102	      1.02533520	      0.28374052	      1.07604663	     11.44662779	     -8.68160808	      6.25657251	    -61.16920112	    -10.55085180	      0.00000000	      0.00000000	      9.02514865	     -7.63935181	     -5.95901045	    -70.81303888	    -10.86626204	      0.00000000	      0.00000000	      0.00000000	      0.00000000	      0.00000000
      3.49000000	     91.67923960	     32.06766631	    -91.70647832	      1.02533656	      0.28371247	      1.07604477	     11.41000937	     -8.73903403	      6.44931399	    -61.20358895	    -10.38517083	      0.00000000	      0.00000000	      9.01760326	     -7.64775674	     -5.96457508	    -70.81144518	    -10.87516728	      0.00000000	      0.00000000	      0.00000000	      0.00000000	      0.00000000
      3.50000000	     91.66017976	     32.05947922	    -91.68661460	      1.02539657	      0.28365397	      1.07602791	     11.37413930	     -8.77501130	      6.65399994	    -61.23200664	    -10.00722342	      0.00000000	      0.00000000	      9.02565984	     -7.66266670	     -5.96422285	    -70.81461613	    -10.88104633	      0.00000000	      0.00000000	      0.00000000	      0.00000000	      0.00000000
      3.51000000	     91.63737235	     32.06361715	    -91.66507077	      1.02549006	      0.28357722	      1.07601071	     11.30911510	     -8.78893494	      6.87269647	    -61.27030906	     -9.46859579	      0.00000000	      0.00000000	      9.04840023	     -7.68677901	     -5.96331481	    -70.81781675	    -10.88147231	      0.00000000	      0.00000000	      0.00000000	      0.00000000	      0.00000000
      3.52000000	     91.60763352	     32.08714012	    -91.64577687	      1.02551325	      0.28347378	      1.07596091	     11.19608283	     -8.78733475	      7.10537616	    -61.32600024	     -8.83882607	      0.00000000	      0.00000000	      9.08320721	     -7.72112648	     -5.96544985	    -70.81642367	    -10.87605546	      0.00000000	      0.00000000	      0.00000000	      0.00000000	      0.00000000
      3.53000000	     91.57138670	     32.11950533	    -91.62831273	      1.02546138	      0.28333353	      1.07588738	     11.05227652	     -8.77905192	      7.34544483	    -61.38386976	     -8.19378035	      0.00000000	      0.00000000	      9.11952257	     -7.76376922	     -5.97151250	    -70.81040432	    -10.86665817	      0.00000000	      0.00000000	      0.00000000	      0.00000000	      0.00000000
      3.54000000	     91.53423924	     32.13675103	    -91.61047221	      1.02546210	      0.28318076	      1.07585604	     10.92211817	     -8.77015147	      7.57961239	    -61.41347398	     -7.60427375	      0.00000000	      0.00000000	      9.14281144	     -7.80971883	     -5.97987247	    -70.80353318	    -10.85650386	      0.00000000	      0.00000000	      0.00000000	      0.00000000	      0.00000000
      3.55000000	     91.50229594	     32.12801048	    -91.59326277	      1.02553889	      0.28304739	      1.07586045	     10.83801139	     -8.76465693	      7.79400671	    -61.39478249	     -7.12618710	      0.00000000	      0.00000000	      9.14579738	     -7.85247102	     -5.98747842	    -70.79839559	    -10.84862619	      0.00000000	      0.00000000	      0.00000000	      0.00000000	      0.00000000
      3.56000000	     91.47870902	     32.10555457	    -91.58070584	      1.02559630	      0.28294632	      1.07584096	     10.79975343	     -8.76725605	      7.98046068	    -61.33130040	     -6.79468563	      0.00000000	      0.00000000	      9.13529618	     -7.88612963	     -5.99135390	    -70.79278170	    -10.84462136	      0.00000000	      0.00000000	      0.00000000	      0.00000000	      0.00000000
      3.57000000	     91.46428032	     32.09007855	    -91.57565719	      1.02561045	      0.28287971	      1.07580165	     10.78862530	     -8.78422570	      8.13710426	    -61.23993412	     -6.62494018	      0.00000000	      0.00000000	      9.12757755	     -7.90672236	     -5.98981347	    -70.78109766	    -10.84436540	      0.00000000	      0.00000000	      0.00000000	      0.00000000	      0.00000000
      3.58000000	     91.45843792	     32.09526179	    -91.57838429	      1.02562902	      0.28284741	      1.07578966	     10.79064055	     -8.82262248	      8.26352418	    -61.13405715	     -6.61862292	      0.00000000	      0.00000000	      9.13633675	     -7.91221320	     -5.98287034	    -70.75915045	    -10.84660938	      0.00000000	      0.00000000	      0.00000000	      0.00000000	      0.00000000
      3.59000000	     91.46021386	     32.12168132	    -91.58852392	      1.02563998	      0.28284778	      1.07580192	     10.80976271	     -8.88729364	      8.35523459	    -61.01409198	     -6.77149608	      0.00000000	      0.00000000	      9.16289885	     -7.90185991	     -5.97186964	    -70.72799154	    -10.84988391	      0.00000000	      0.00000000	      0.00000000	      0.00000000	      0.00000000
      3.60000000	     91.47031774	     32.15674704	    -91.60632624	      1.02558201	      0.28288643	      1.07578287	     10.86689786	     -8.97668919	      8.40305572	    -60.86919910	     -7.07605559	      0.00000000	      0.00000000	      9.19562416	     -7.87606725	     -5.95881324	    -70.69376957	    -10.85313578	      0.00000000	      0.00000000	      0.00000000	      0.00000000	      0.00000000
      3.61000000	     91.49147005	     32.18065344	    -91.63126695	      1.02548976	      0.28297673	      1.07572670	     10.98467963	     -9.08197980	      8.39985053	    -60.68852355	     -7.51612495	      0.00000000	      0.00000000	      9.21905352	     -7.83717262	     -5.94583381	    -70.66359853	    -10.85580094	      0.00000000	      0.00000000	      0.00000000	      0.00000000	      0.00000000
      3.62000000	     91.52380552	     32.18192495	    -91.66086111	      1.02548737	      0.28310892	      1.07570944	     11.16212156	     -9.19222269	      8.35054371	    -60.47678541	     -8.05638739	      0.00000000	      0.00000000	      9.22639795	     -7.79038310	     -5.93482924	    -70.64044443	    -10.85747256	      0.00000000	      0.00000000	      0.00000000	      0.00000000	      0.00000000
      3.63000000	     91.56000625	     32.17246606	    -91.69223838	      1.02556957	      0.28323609	      1.07574961	     11.35892202	     -9.30001072	      8.27585686	    -60.26117671	     -8.63505737	      0.00000000	      0.00000000	      9.22497348	     -7.74352145	     -5.92702630	    -70.62144143	    -10.85767794	      0.00000000	      0.00000000	      0.00000000	      0.00000000	      0.00000000
      3.64000000	     91.58919985	     32.17628160	    -91.72313179	      1.02559665	      0.28332216	      1.07576713	     11.51782524	     -9.39939404	      8.20352152	    -60.07526489	     -9.16769219	      0.00000000	      0.00000000	      9.22869300	     -7.70491987	     -5.92256394	    -70.60180954	    -10.85612217	      0.00000000	      0.00000000	      0.00000000	      0.00000000	      0.00000000
      3.65000000	     91.60629756	     32.19982892	    -91.75025323	      1.02553958	      0.28337466	      1.07573732	     11.60967176	     -9.48005612	      8.15388208	    -59.93218349	     -9.56407175	      0.00000000	      0.00000000	      9.24420727	     -7.68061257	     -5.92030713	    -70.58099644	    -10.85315955	      0.00000000	      0.00000000	      0.00000000	      0.00000000	      0.00000000
      3.66000000	     91.61417295	     32.22677465	    -91.76928617	      1.02548080	      0.28340421	      1.07569586	     11.64672102	     -9.52873980	      8.13331003	    -59.81928046	     -9.75260746	      0.00000000	      0.00000000	      9.26488112	     -7.67279441	     -5.91805349	    -70.56451532	    -10.84988043	      0.00000000	      0.00000000	      0.00000000	      0.00000000	      0.00000000
      3.67000000	     91.61812388	     32.23873612	    -91.77714718	      1.02546196	      0.28339437	      1.07564859	     11.65606324	     -9.53724655	      8.13861408	    -59.71760568	     -9.70252138	      0.00000000	      0.00000000	      9.27893436	     -7.68023589	     -5.91331284	    -70.55898644	    -10.84753175	      0.00000000	      0.00000000	      0.00000000	      0.00000000	      0.00000000
